<svg xmlns="http://www.w3.org/2000/svg" width="500" height="500"><path fill="#FBB680" d="M107.688-.687c4.574.949 5.942 3.011 8.574 6.757C124.248 19.531 127.392 34.52 125 50l5-2v-2c6.945-4.043 12.732-7.394 21-7l.188-2c2.002-7.394 7.279-14.207 13.796-18.223 8.362-4.385 17.851-5.231 27.063-3.058C197.748 17.672 202.303 20.243 207 24v-2q2.404-1.222 4.813-2.437l2.707-1.372c7.88-3.784 17.397-3.267 25.542-.441 3.802 1.581 7.04 3.252 9.938 6.25v2h2v2h2c4.794 7.99 6.372 14.716 7 24l2.273.777c9.153 3.424 17.065 8.352 22.227 16.91 4.298 9.492 5.204 19.436 1.5 29.313q-.995 2.502-2 5l2.003-.011q24.125-.133 48.248-.196 11.667-.028 23.332-.095 10.168-.06 20.335-.074c3.59-.006 7.18-.018 10.769-.047 4.006-.032 8.011-.033 12.017-.031l3.612-.044 3.306.017 2.871-.011c3.272.642 4.452 1.92 6.507 4.492 1.436 5.238 1.045 10.636.873 16.02-.17 10.787 1.696 20.477 5.81 30.421 8.852 22.424 7.586 45.599 7.374 69.331-.14 16.125-.139 32.252-.16 48.377q-.016 9.882-.086 19.764c-.028 4.158-.043 8.315-.056 12.473q-.012 2.938-.042 5.875a962 962 0 0 0-.038 8.118l-.037 2.394c.024 6.694 2.423 11.09 6.3 16.477 7.814 11.576 9.25 24.103 10.062 37.75l1.772.06c2.66.096 5.319.205 7.978.315l2.79.094 2.694.117 2.476.095c2.493.347 4.15 1.008 6.29 2.319 2.677 4.046 2.779 8.31 2 13-2.103 3.294-3.688 4.664-7.493 5.639l-2.702.49-2.727.506L459 398l-.93 2.823a7258 7258 0 0 1-3.495 10.562q-.75 2.267-1.498 4.535c-2.473 7.502-4.98 14.992-7.69 22.412l-1.107 3.042c-1.424 2.922-2.73 4.613-5.28 6.626-3.239.826-6.275 1.126-9.61 1.131l-2.73.012-2.97-.003-3.18.01q-5.279.01-10.558.011l-7.564.015q-10.28.019-20.56.024l-12.84.012q-17.781.019-35.562.026h-4.601l-4.62.002h-2.315q-18.572.009-37.145.046-19.074.035-38.148.037-10.707-.001-21.414.025-10.069.024-20.138.01-3.696-.002-7.392.013c-3.363.013-6.725.007-10.088-.004l-2.958.025c-5.632-.041-9.646-.649-14.607-3.392-3-3.968-3-3.968-3-7l-2.965.02q-13.838.092-27.677.135c-4.743.016-9.486.037-14.228.071-4.578.033-9.155.05-13.733.059q-2.619.008-5.238.032c-2.447.022-4.893.025-7.34.024l-2.183.032c-6.315-.039-9.839-2.327-14.187-6.658l-1.865-1.858-1.897-1.92-1.955-1.931-1.845-1.854-1.681-1.687C69 422 69 422 69 420h-2v-2h-2c-4-4.47-4-4.47-4-7h-2a95 95 0 0 1-3.937-5.25l-2.09-2.953L51 400l-1.598-1.588c-2.2-3.784-1.829-7.504-1.81-11.805l-.023-2.916c-.021-3.233-.02-6.465-.02-9.698q-.017-3.472-.036-6.943c-.03-6.293-.042-12.587-.048-18.88q-.007-5.895-.022-11.792c-.027-10.885-.05-21.77-.052-32.656v-2.11l-.001-4.236v-2.123l-.001-2.127c-.003-11.37-.04-22.739-.091-34.109a7807 7807 0 0 1-.079-35.03c0-6.554-.012-13.108-.05-19.663-.037-6.165-.039-12.33-.016-18.495q.005-3.393-.028-6.788c-.028-3.09-.013-6.177.013-9.267l-.056-2.712c.094-4.944.795-7.467 4.336-11.027A196 196 0 0 1 55 153c1.31-1.4 2.607-2.812 3.875-4.25l1.742-1.953c2.048-2.66 2.438-4.343 2.038-7.67l-.651-3.49-.693-3.881q-.554-3.025-1.12-6.047C55.171 98.743 55.171 98.743 63 87h2v-2c2.188-1.508 2.188-1.508 5-3.125l2.813-1.633L75 79l-1.312-1.242L72 76.125l-1.687-1.617C69 73 69 73 69 71h-2c-6.98-8.89-11.58-18.714-11.238-30.102C56 39 56 39 57 38c11.55-.963 21.969 2.876 31 10l1 1 .088-1.658c.758-12.811 2.706-43.964 18.6-48.03"/><path fill="#D5EDFB" d="m284 102 1 2 2.003-.011q24.125-.133 48.248-.196 11.667-.028 23.332-.095 10.168-.06 20.335-.074c3.59-.006 7.18-.018 10.769-.047 4.006-.032 8.011-.033 12.017-.031l3.612-.044 3.306.017 2.871-.011c3.272.642 4.452 1.92 6.507 4.492 1.436 5.238 1.045 10.636.873 16.02-.17 10.787 1.696 20.477 5.81 30.421 8.852 22.424 7.586 45.599 7.374 69.331-.14 16.125-.139 32.252-.16 48.377q-.016 9.882-.086 19.764c-.028 4.158-.043 8.315-.056 12.473q-.012 2.938-.042 5.875a962 962 0 0 0-.038 8.118l-.037 2.394c.024 6.694 2.423 11.09 6.3 16.477 7.814 11.576 9.25 24.103 10.062 37.75l1.772.06c2.66.096 5.319.205 7.978.315l2.79.094 2.694.117 2.476.095c2.493.347 4.15 1.008 6.29 2.319 2.677 4.046 2.779 8.31 2 13-2.103 3.294-3.688 4.664-7.493 5.639l-2.702.49-2.727.506L459 398l-.93 2.823a7258 7258 0 0 1-3.495 10.562q-.75 2.267-1.498 4.535c-2.473 7.502-4.98 14.992-7.69 22.412l-1.107 3.042c-1.424 2.922-2.73 4.613-5.28 6.626-3.239.826-6.275 1.126-9.61 1.131l-2.73.012-2.97-.003-3.18.01q-5.279.01-10.558.011l-7.564.015q-10.28.019-20.56.024l-12.84.012q-17.781.019-35.562.026h-4.601l-4.62.002h-2.315q-18.572.009-37.145.046-19.074.035-38.148.037-10.707-.001-21.414.025-10.069.024-20.138.01-3.696-.002-7.392.013c-3.363.013-6.725.007-10.088-.004l-2.958.025c-5.632-.041-9.646-.649-14.607-3.392-3-3.968-3-3.968-3-7h-30v-1c9.371-.885 18.598-1.117 28-1q-.682-2.845-1.375-5.687l-.773-3.2c-.775-3.061-.775-3.061-1.887-5.699-.982-2.457-1.54-4.755-2.028-7.351l-.496-2.614A395 395 0 0 1 157 404h-2l-1-7h-14v-3h-2c-.506-6.986-.06-11.217 4-17 1.786-1.786 4.195-1.123 6.573-1.13l2.444.01 2.576-.003c2.872-.002 5.743.004 8.614.01l6.148-.001q8.374.001 16.748.013c5.827.006 11.654.006 17.48.008q16.565.005 33.129.021 18.852.016 37.704.022 38.792.016 77.584.05c-.252-3.168-.53-6.334-.812-9.5l-.213-2.687c-1.424-15.486-9.095-28.936-20.604-39.145-9.875-7.352-20.508-6.866-32.371-5.668q-2.502.486-5 1l.007-3.17a19184 19184 0 0 0 .01-79.454l-.006-3.193q-.014-9.983.004-19.965c.012-7.003.001-14.005-.045-21.008-.022-3.466-.033-6.93-.014-10.396.014-3.784-.014-7.565-.054-11.35l.044-3.3c-.01-5.46-.01-5.46-2.545-10.091-1.87-1.61-1.87-1.61-3.847-2.858C284 154 284 154 283.438 150.875c.52-2.659 1.149-4.578 2.562-6.875h2c.051-16.24.051-16.24-7.75-29.875L278 112v-3h2l.875-1.812C282 105 282 105 284 102"/><path fill="#F4A66E" d="M107.688-.687c4.574.949 5.942 3.011 8.574 6.757C124.248 19.531 127.392 34.52 125 50l5-2v-2c6.945-4.043 12.732-7.394 21-7l.188-2c2.002-7.394 7.279-14.207 13.796-18.223 8.362-4.385 17.851-5.231 27.063-3.058C197.748 17.672 202.303 20.243 207 24v-2q2.404-1.222 4.813-2.437l2.707-1.372c7.88-3.784 17.397-3.267 25.542-.441 3.802 1.581 7.04 3.252 9.938 6.25v2h2v2h2c4.794 7.99 6.372 14.716 7 24l2.273.777c9.153 3.424 17.065 8.352 22.227 16.91 4.311 9.521 5.164 19.4 1.5 29.313l-1 3h-2l-.875 1.813C282 106 282 106 280 109h-2v3l3 1c1.316 1.418 1.316 1.418 2.563 3.188l1.253 1.73c3.279 5.767 3.443 11.01 3.309 17.457l-.027 2.52c-.024 2.035-.06 4.07-.098 6.105h-2l-1 4h-4c-5.436.723-8.533 5.084-12 9-1.938 2.773-1.938 2.773-3 5-3.788-.526-6.172-1.381-9-4v-2h-2a197 197 0 0 1-3-5l-1.687-1.687L249 148v-2c-5.594 4.493-10.037 9.312-14.336 15.059-.55.64-1.098 1.28-1.664 1.941h-2a105 105 0 0 1-4.375-5.187l-2.336-2.918L222 152l-4-5c-4.173 1.556-6.483 4.632-9.187 8l-1.366 1.656c-2.467 3.01-2.467 3.01-4.447 6.344h-3c-1.867-1.977-1.867-1.977-3.875-4.625l-2.117-2.75L192 153a513 513 0 0 0-5-6c-3.676 1.474-5.332 3.443-7.625 6.625A79 79 0 0 1 176 158h-2l-2 4c-3 0-3 0-5.375-2.266L164 156.75l-2.625-2.953C159 151 159 151 157.313 148.64L156 147h-2a105 105 0 0 0-4.375 5.188l-2.336 2.917L145 158l-4 5c-3.02-1.328-4.853-2.682-6.945-5.223l-1.575-1.88-1.605-1.96a1058 1058 0 0 0-3.195-3.847l-1.415-1.723c-1.24-1.502-1.24-1.502-3.265-2.367l-.746 1.715c-1.942 3.538-4.737 6.226-7.477 9.164-1.97 2.087-1.97 2.087-2.777 5.121-2.062.688-2.062.688-4 1l-1-3h-2c-1.367-1.61-1.367-1.61-2.875-3.75-2.185-3.005-4.287-5.818-7.125-8.25h-2c-1.808 3.108-2.252 5.364-2.262 8.943l-.022 3.033.006 3.325-.018 3.537q-.02 4.86-.02 9.721c-.004 3.494-.02 6.988-.033 10.483q-.034 9.081-.048 18.162c-.014 8.753-.04 17.506-.068 26.26q-.067 21.3-.113 42.603-.045 20.694-.105 41.388l-.007 2.576-.037 12.796Q90.119 383.914 90 437c-7.708-.948-7.708-.948-10.746-4.09l-1.846-1.877-1.846-1.97-1.927-1.96C69 422.31 69 422.31 69 420h-2v-2h-2c-4-4.47-4-4.47-4-7h-2a95 95 0 0 1-3.937-5.25l-2.09-2.953L51 400l-1.598-1.588c-2.2-3.784-1.829-7.504-1.81-11.805l-.023-2.916c-.021-3.233-.02-6.465-.02-9.698q-.017-3.472-.036-6.943c-.03-6.293-.042-12.587-.048-18.88q-.007-5.895-.022-11.792c-.027-10.885-.05-21.77-.052-32.656v-2.11l-.001-4.236v-2.123l-.001-2.127c-.003-11.37-.04-22.739-.091-34.109a7807 7807 0 0 1-.079-35.03c0-6.554-.012-13.108-.05-19.663-.037-6.165-.039-12.33-.016-18.495q.005-3.393-.028-6.788c-.028-3.09-.013-6.177.013-9.267l-.056-2.712c.094-4.944.795-7.467 4.336-11.027A196 196 0 0 1 55 153c1.31-1.4 2.607-2.812 3.875-4.25l1.742-1.953c2.048-2.66 2.438-4.343 2.038-7.67l-.651-3.49-.693-3.881q-.554-3.025-1.12-6.047C55.171 98.743 55.171 98.743 63 87h2v-2c2.188-1.508 2.188-1.508 5-3.125l2.813-1.633L75 79l-1.312-1.242L72 76.125l-1.687-1.617C69 73 69 73 69 71h-2c-6.98-8.89-11.58-18.714-11.238-30.102C56 39 56 39 57 38c11.55-.963 21.969 2.876 31 10l1 1 .088-1.658c.758-12.811 2.706-43.964 18.6-48.03"/><path fill="#95CE2B" d="M107.688-.687c4.574.949 5.942 3.011 8.574 6.757C124.248 19.531 127.392 34.52 125 50l5-2v-2c6.945-4.043 12.732-7.394 21-7l.188-2c2.002-7.394 7.279-14.207 13.796-18.223 8.362-4.385 17.851-5.231 27.063-3.058C197.748 17.672 202.303 20.243 207 24v-2q2.404-1.222 4.813-2.437l2.707-1.372c7.88-3.784 17.397-3.267 25.542-.441 3.802 1.581 7.04 3.252 9.938 6.25v2h2v2h2c4.794 7.99 6.372 14.716 7 24l2.273.777c9.153 3.424 17.065 8.352 22.227 16.91 4.311 9.521 5.164 19.4 1.5 29.313l-1 3h-2l-.875 1.813C282 106 282 106 280 109h-2v3l3 1c1.316 1.418 1.316 1.418 2.563 3.188l1.253 1.73c3.279 5.767 3.443 11.01 3.309 17.457l-.027 2.52c-.024 2.035-.06 4.07-.098 6.105h-2l-1 4h-4c-5.436.723-8.533 5.084-12 9-1.938 2.773-1.938 2.773-3 5-3.788-.526-6.172-1.381-9-4v-2h-2c-2.793-4.324-2.414-9.196-2.566-14.156-.164-3.804-.512-6.552-2.434-9.844l-.375-3.187c-.977-5.96-3.367-12.384-7.625-16.813l-2.625-1.562C237 109 237 109 236 106c-1.803-.702-1.803-.702-4-1l-2.5-.812L227 104c-2.125 1.791-2.125 1.791-4 4-3.326 2.217-6.06 2.18-10 2v2q-3.125.039-6.25.063l-3.516.035C200 112 200 112 198.194 111.502c-2.88-.659-5.58-.632-8.534-.635l-3.72-.004-3.877.012-3.866-.012-3.724.004-3.399.004c-2.817.118-5.329.52-8.074 1.129-9.63.76-16.778.087-24.48-5.941-3.3-2.849-6.094-5.42-8.52-9.059 0-1.937 0-1.937 1-4 5.002-4.475 10.49-5.12 17-6v-3l-2.625-.875a182 182 0 0 1-6.2-2.181c-3.302-.982-5.925-1.183-9.36-1.168l-3.641-.001-3.893.022q-2.017-.006-4.034-.016a1702 1702 0 0 0-17.062-.011c-3.49.017-6.977.004-10.466-.026-1.964-.01-3.929.013-5.893.037-9.935-.108-9.935-.108-13.683-3.702C69 73 69 73 69 71h-2c-6.98-8.89-11.58-18.714-11.238-30.102C56 39 56 39 57 38c11.55-.963 21.969 2.876 31 10l1 1 .088-1.658c.758-12.811 2.706-43.964 18.6-48.03"/><path fill="#51B8F6" d="m284 102 1 2 2.003-.011q24.125-.133 48.248-.196 11.667-.028 23.332-.095 10.168-.06 20.335-.074c3.59-.006 7.18-.018 10.769-.047 4.006-.032 8.011-.033 12.017-.031l3.612-.044 3.306.017 2.871-.011c3.272.642 4.452 1.92 6.507 4.492 1.436 5.238 1.045 10.636.873 16.02-.149 9.429.984 18.626 4.51 27.406C434.018 178.136 431 192.636 431 225H292l-1-65-7-6c-.719-3.993-.114-6.565 2-10h2c.051-16.24.051-16.24-7.75-29.875L278 112v-3h2l.875-1.812C282 105 282 105 284 102"/><path fill="#F84651" d="m90.336 78.566 3.862-.015q4.032-.011 8.064.003c3.418.011 6.835-.009 10.253-.038 3.295-.023 6.589-.016 9.883-.012l3.679-.034c7.467.06 13.234 1.175 19.923 4.53l2 1v3l4 1-3.07.297q-2.028.225-4.055.453l-2.016.188c-5.074.596-7.909 2.035-11.859 5.062 1.11 5.956 5.347 9.726 10 13.313 5.196 2.922 9.612 3.952 15.563 3.874l3.316-.019c3.002-.077 3.002-.077 5.412-.67 3.109-.571 6.02-.628 9.182-.63l3.724-.005 3.865.012 3.877-.012 3.721.004 3.395.004c2.524.11 4.536.447 6.945 1.129q3.371.328 6.75.563l3.547.253L213 112v-2l3.188-.812c4.4-1.371 7.556-2.932 10.812-6.188 3.35.353 6.154 1.197 9 3l3 4 1.875.813c4.256 2.378 6.545 6.796 8.375 11.187.75 3 .75 3 1.25 6.625.26 3.217.26 3.217 1.523 5.102 1.415 3.292 1.188 6.508 1.102 10.023l-.027 2.113c-.024 1.713-.06 3.425-.098 5.137-2-1.375-2-1.375-4-3v-2c-5.594 4.493-10.037 9.312-14.336 15.059-.55.64-1.098 1.28-1.664 1.941h-2a105 105 0 0 1-4.375-5.187l-2.336-2.918L222 152l-4-5c-4.173 1.556-6.483 4.632-9.187 8l-1.366 1.656c-2.467 3.01-2.467 3.01-4.447 6.344h-3c-1.867-1.977-1.867-1.977-3.875-4.625l-2.117-2.75L192 153a513 513 0 0 0-5-6c-3.676 1.474-5.332 3.443-7.625 6.625A79 79 0 0 1 176 158h-2l-2 4c-3 0-3 0-5.375-2.266L164 156.75l-2.625-2.953C159 151 159 151 157.313 148.64L156 147h-2a105 105 0 0 0-4.375 5.188l-2.336 2.917L145 158l-4 5c-3.02-1.328-4.853-2.682-6.945-5.223l-1.575-1.88-1.605-1.96a1058 1058 0 0 0-3.195-3.847l-1.415-1.723c-1.24-1.502-1.24-1.502-3.265-2.367l-.746 1.715c-1.942 3.538-4.737 6.226-7.477 9.164-1.97 2.087-1.97 2.087-2.777 5.121-2.062.688-2.062.688-4 1l-1-3h-2c-1.367-1.61-1.367-1.61-2.875-3.75-2.182-3.017-4.379-5.715-7.125-8.25-4.442 1.392-6.665 3.443-9.687 6.938l-2.325 2.652c-2.082 2.44-2.082 2.44-3.988 5.41h-2a105 105 0 0 1-4.562-5.312l-2.442-2.989C68 152 68 152 67 149h-2l-.06-1.697c-.095-2.539-.205-5.077-.315-7.615-.03-.882-.062-1.763-.094-2.67l-.117-2.569-.095-2.364c-.215-2.387-.215-2.387-2.319-5.085-.379-2.664-.379-2.664-.562-5.625.06-3.5.06-3.5-1.438-6.375-.181-2.745-.278-5.44-.312-8.187l-.088-2.292c-.061-5.387 1.017-8.15 4.4-12.521a505 505 0 0 0 2-6c1.943-3.779 4.527-4.957 8.462-6.367 5.205-1.298 10.539-1.08 15.874-1.067"/><path fill="#F7FAFC" d="M201.887 236.594c2.748 1.828 4.837 4.019 7.113 6.406l2.5 2.543c5.413 5.726 9.65 11.08 12.5 18.457l.776 1.917c2.29 6.108 2.764 11.716 2.724 18.208l-.004 3.038c-.193 9.423-2.272 17.389-6.496 25.837h-2l-1 4-2.86.043c-12.938.48-23.585 3.732-33.14 12.957-3.31 3.805-6.205 7.808-9 12-7.093 1.416-14.32-.743-21-3l-3.012-.996c-14.309-5.295-25.47-17.753-31.818-31.504-5.65-13.774-5.195-29.872.053-43.693A58.8 58.8 0 0 1 129 245h2l.64-1.754c4.362-7.207 16.924-11.9 24.567-14.394 16.214-3.64 31.085.483 45.68 7.742"/><path fill="#FCFEFD" d="M293 225h139c0 62 0 62-1 64H293z"/><path fill="#52B8F6" d="M292 289h140v40l-8-4v-2l-6-1v-2c-2.958-.851-5.594-1.128-8.668-1.133l-2.709-.004-2.81.012-2.752-.012c-5.765.009-11.343.401-17.061 1.137v3c-2.888 2.108-4.385 3-8 3l-.687 1.625c-1.396 2.525-3.127 4.537-5.004 6.715-2.128 2.7-3.678 5.64-5.309 8.66h-2l-.875 3.188C361 350 361 350 360 352.313c-2.94 7.899-3.455 16.343-4 24.687l-5-1-.136-1.709c-.214-2.598-.445-5.194-.676-7.791l-.213-2.687c-.527-5.727-1.642-10.56-3.975-15.813l-1.324-3.09c-5.12-10.692-12.29-20.367-23.509-25.265-9.008-2.68-20.09-1.46-29.167.355z"/><path fill="#FDFEFD" d="m284 102 1 2 2.003-.011q24.125-.133 48.248-.196 11.667-.028 23.332-.095 10.168-.06 20.335-.074c3.59-.006 7.18-.018 10.769-.047 4.006-.032 8.011-.033 12.017-.031l3.612-.044 3.306.017 2.871-.011c3.36.66 4.488 1.75 6.507 4.492 1.754 10.527 1 21.328 1 32H288l-1-14c-2.168-6.273-4.175-9.443-9-14v-3h2l.875-1.812C282 105 282 105 284 102"/><path fill="#FC7B06" d="m90.336 78.566 3.862-.015q4.032-.011 8.064.003c3.418.011 6.835-.009 10.253-.038 3.295-.023 6.589-.016 9.883-.012l3.679-.034c7.467.06 13.234 1.175 19.923 4.53l2 1v3l4 1-3.07.297q-2.028.225-4.055.453l-2.016.188c-5.074.596-7.909 2.035-11.859 5.062.7 3.15 1.783 6.016 3 9l-2.809 2.555-3.629 3.32-1.853 1.684-1.768 1.62-1.634 1.492c-1.43 1.317-1.43 1.317-2.307 3.329h-2l-.84 2.125c-1.616 4.006-3.333 7.969-5.039 11.938-1.671 4.379-2.247 8.345-2.219 13.019l.01 2.822.025 2.909.014 2.966q.018 3.61.049 7.221h2v2l-4 1-1-3h-2c-1.367-1.61-1.367-1.61-2.875-3.75-2.182-3.017-4.379-5.715-7.125-8.25-4.442 1.392-6.665 3.443-9.687 6.938l-2.325 2.652c-2.082 2.44-2.082 2.44-3.988 5.41h-2a105 105 0 0 1-4.562-5.312l-2.442-2.989C68 152 68 152 67 149h-2l-.06-1.697c-.095-2.539-.205-5.077-.315-7.615-.03-.882-.062-1.763-.094-2.67l-.117-2.569-.095-2.364c-.215-2.387-.215-2.387-2.319-5.085-.379-2.664-.379-2.664-.562-5.625.06-3.5.06-3.5-1.438-6.375-.181-2.745-.278-5.44-.312-8.187l-.088-2.292c-.061-5.387 1.017-8.15 4.4-12.521a505 505 0 0 0 2-6c1.943-3.779 4.527-4.957 8.462-6.367 5.205-1.298 10.539-1.08 15.874-1.067"/><path fill="#067048" d="M107.688-.687c4.574.949 5.942 3.011 8.574 6.757C124.248 19.531 127.392 34.52 125 50l5-2v-2a563 563 0 0 1 4.125-2.375l2.32-1.336c5.426-2.738 9.855-3.529 15.93-3.414l3.773.055L159 39c.781 8.819-1.088 15.13-5 23l-1.047 2.172c-2.054 3.94-4.402 6.23-7.953 8.828l-2.562 2.625c-4.03 3.926-6.801 4.627-12.396 4.605l-3.642-.002-3.923-.04-4.043-.033q-4.234-.04-8.468-.102c-3.607-.05-7.213-.062-10.82-.065-2.784-.01-5.566-.046-8.35-.089-1.972-.024-3.945-.02-5.918-.015-9.986-.216-9.986-.216-13.74-3.814C69 73 69 73 69 71h-2c-6.98-8.89-11.58-18.714-11.238-30.102C56 39 56 39 57 38c11.55-.963 21.969 2.876 31 10l1 1 .088-1.658c.758-12.811 2.706-43.964 18.6-48.03"/><path fill="#F2A66F" d="m403.813 317.75 2.81-.023 2.709.007 2.429.007c2.463.285 4.104 1.03 6.239 2.259v2l2.938.375L424 323l1 2 3.188 1.625c8.876 4.964 13.86 16.24 16.82 25.543A100 100 0 0 1 448 376c-1.845 1.845-4.445 1.12-6.9 1.124l-2.567-.01h-2.69c-2.95 0-5.898-.009-8.847-.016l-6.116-.005q-8.067-.006-16.133-.024-8.224-.014-16.448-.02-16.15-.016-32.299-.049a1950 1950 0 0 1-.032-5.769l-.018-3.245c.15-8.928 2.756-20.423 9.05-27.111l2-1.875c.99-1.726 1.98-3.453 2.941-5.195 3.028-5.162 6.398-8.54 12.059-10.805h2v-3c6.732-1.733 12.875-2.31 19.813-2.25"/><path fill="#F5A56B" d="M325.08 320.716c2.855 1.91 5.356 3.988 7.92 6.284l2.602 2.297c7.21 7.185 11.94 16.87 14.398 26.703v20h-89c0-19.04 0-19.04 3-26l1-3h2l.188-2c2.198-8.118 8.352-15.233 15-20.125l2.667-2.008c11.125-6.606 28.658-8.72 40.224-2.15"/><path fill="#05784C" d="M157.5 70.625c7.03.113 12.424 4.122 17.375 8.813C177.943 82.698 181 86.327 181 91h2l.25-2.125c2.032-7.79 8.167-12.538 14.625-16.75 4.23-1.523 7.643-1.329 12.125-1.125v17l4.875-.25c6.014-.016 10.839 1.416 16.125 4.25l2 2c-.097 3.572-.899 4.888-3.312 7.563L227 104l-2.062 2.188c-3.076 2.876-4.938 3.774-9.188 3.937L213 110v2q-3.125.039-6.25.063l-3.516.035C200 112 200 112 198.194 111.502c-2.88-.659-5.58-.632-8.534-.635l-3.72-.004-3.877.012-3.866-.012-3.724.004-3.399.004c-2.817.118-5.329.52-8.074 1.129-9.63.76-16.778.087-24.48-5.941-3.3-2.849-6.094-5.42-8.52-9.059 0-1.937 0-1.937 1-4 5.734-4.46 9.624-5.134 16.75-5.062l3.547.027L154 88l-1-3a147 147 0 0 1-.125-6.625l-.008-3.54c.195-4.16.37-3.753 4.633-4.21"/><path fill="#D38856" d="m308.563 317.813 3.056.04q3.69.054 7.381.147l1 3c-5.75 3-5.75 3-8 3v2h-2v2c-1.32 1.156-1.32 1.156-3.125 2.5-9.668 8.147-14.213 21.75-15.406 34.086-.3 3.812-.366 7.58-.469 11.414h-30c-.426-18.05-.426-18.05 3-26l1-3h2l.188-2c2.198-8.118 8.352-15.233 15-20.125l2.667-2.008c7.762-4.609 14.799-5.284 23.707-5.055M212.25 317.688l2.114-.017c3.694.051 6.498.299 9.636 2.329v2a208 208 0 0 1-6 4c-10.767 8.316-17.13 17.976-20.492 31.172C197 359 197 359 196 360a226 226 0 0 0-.562 8.063L195 376h-29c-.299-17.942 2.819-33.044 15.25-46.937 3.474-3.319 7.084-4.416 11.71-5.458L195 323l1-2c5.361-2.845 10.236-3.29 16.25-3.312"/><path fill="#D28857" d="m403.938 317.688 2.86-.05 2.73-.001 2.46-.01L414 318l2 3-2.437.875c-2.696.858-2.696.858-3.563 3.125l-2.375.875c-2.964 1.27-3.815 2.54-5.625 5.125h-2v2h-2v3h-2l-.312 1.688C395 340 395 340 393.594 342.156c-1.916 3.418-2.854 6.883-3.781 10.656l-.538 2.1c-.432 1.694-.854 3.39-1.275 5.088h-2v16h-28c-.774-24.142-.774-24.142 5-33a241 241 0 0 1 4-4c.99-1.726 1.98-3.453 2.941-5.195 3.028-5.162 6.398-8.54 12.059-10.805h2v-3c6.76-1.737 12.97-2.337 19.938-2.312"/><path fill="#E01E29" d="m134 102 1.723 1.207c4.649 3.19 9.033 5.737 14.277 7.793 1.34.653 2.677 1.312 4 2h-2l-.75 1.625c-1.25 2.375-1.25 2.375-3.187 5-2.607 4.265-3.809 8.567-5.063 13.375h-2v30c-3.498-1.75-4.634-2.415-6.945-5.223l-1.575-1.88-1.605-1.96a1058 1058 0 0 0-3.195-3.847l-1.415-1.723c-1.24-1.502-1.24-1.502-3.265-2.367l-.68 1.64c-1.731 3.095-4.036 5.54-6.445 8.11l-1.418 1.535A950 950 0 0 1 111 161l-2-1c-.088-3.312-.14-6.624-.187-9.937l-.077-2.807c-.066-6.333.852-11.405 3.264-17.256l1.098-2.707.965-2.106.972-2.144c.959-2.03 1.952-4.04 2.965-6.043h2l.793-1.781c2.94-5.405 8.371-9.556 13.207-13.219"/><path fill="#06653E" d="M159 39c.781 8.819-1.088 15.13-5 23l-1.047 2.172c-2.054 3.94-4.402 6.23-7.953 8.828l-2.562 2.625c-3.013 2.936-4.924 4.262-9.159 4.578l-3.15-.068-3.578-.06-3.848-.098-3.951-.076c-3.46-.067-6.918-.146-10.377-.227-3.532-.081-7.065-.15-10.598-.22Q87.388 79.242 77 79l-1-3 3-1 2 1c2.25.155 4.504.25 6.758.316l2.01.063q3.178.097 6.357.183l4.309.131q5.283.16 10.566.307l.41-3.304C112.67 65.805 117.878 58.1 124 53c3-2 3-2 5-2.375 2.681-.838 3.361-2.416 5-4.625h3v-4c7.31-3.508 13.99-3.304 22-3"/><path fill="#F5FBFD" d="M349.668 156.945c6.421 3.017 10.518 6.43 13.332 13.055.885 5.955 1.033 11.404-2.562 16.438A72 72 0 0 1 357 190l-1.5 1.598c-4.572 4.103-9.464 4.075-15.406 3.816-5.099-.682-8.13-2.152-11.586-6.133-4.568-6.09-5.425-11.742-4.508-19.281 4.276-10.718 14.477-17.02 25.668-13.055"/><path fill="#09663E" d="M157.5 70.625c5.95.054 10.8 3.105 15.262 6.855C174 79 174 79 174 82l-3.375-.625L167 81c-2.357 1.91-2.357 1.91-2.16 5.223l.097 3.84c.054 2.311.083 4.624.063 6.937-2.298 2.298-7.79 1.46-10.898 1.621-3.265.163-3.265.163-6.102 2.379l-3.125 1c-3 .669-3 .669-3.875 3h3l1 2c9.816 3.472 21.442 2.22 31.688 2.125q2.814-.016 5.63-.027 6.841-.035 13.682-.098v1c-6.308.81-12.396 1.101-18.75 1-4.923-.077-9.425-.084-14.25 1-9.63.76-16.778.087-24.48-5.941-3.3-2.849-6.094-5.42-8.52-9.059 0-1.937 0-1.937 1-4 5.734-4.46 9.624-5.134 16.75-5.062l3.547.027L154 88l-1-3a147 147 0 0 1-.125-6.625l-.008-3.54c.195-4.16.37-3.753 4.633-4.21"/><path fill="#E4F6F9" d="m284 102 1 2h28v1l-12 1c-1.812 10.87-1.592 21.987-2 33h119l1-2v3H288l-1-14c-2.168-6.273-4.175-9.443-9-14v-3h2l.875-1.812C282 105 282 105 284 102"/><path fill="#57ADDD" d="M286 144h2l-1 10 2.313.688C292 156 292 156 295 161v62h135v-45h1v47H292l-1-65-7-6c-.719-3.993-.114-6.565 2-10"/><path fill="#F6F2ED" d="M146.356 375.893q2.31.005 4.623.025l2.564.01q4.286.02 8.572.05l6.12.03q8.332.04 16.666.093 8.699.049 17.397.092 16.485.085 32.968.18 18.761.107 37.523.203 38.606.203 77.211.424v2c-32.774.688-65.536 1.096-98.316 1.063l-2.37-.003q-16.72-.016-33.44-.055c-11.412-.024-22.825-.047-34.238-.058q-6.81-.008-13.622-.029-3.174-.009-6.348-.011-3.854-.005-7.708-.02h-3.42l-2.967-.007A26.2 26.2 0 0 0 141 381c-.393 5.675-.393 5.675 1.438 10.938 3.625 2.918 7.015 2.955 11.562 3.062v2h-14v-3h-2c-.506-6.986-.06-11.217 4-17 1-1 1-1 4.356-1.107"/><path fill="#B7E869" d="M226.938 54.438c3.863.71 5.359 1.71 8.062 4.562.447 2.888.588 5.173.488 8.047l-.021 2.337c-.028 2.456-.09 4.91-.155 7.366q-.037 2.502-.068 5.004c-.055 4.083-.141 8.164-.244 12.246l-2-1v-2l-2.562.188C226.266 90.96 223.786 89.715 220 88c-.116-4.562-.187-9.124-.25-13.687l-.102-3.92-.039-3.78-.063-3.475c.689-4.762 2.55-7.774 7.392-8.7"/><path fill="#69B5DA" d="M292 289h140v40l-8-4c2-1 2-1 6 0v-35l-135 1-1 26 5-2c7.88-.786 14.716-.043 22 3l3 1v2l1.625.375c2.839.747 5.597 1.678 8.375 2.625l1 5-1.723-1.172-2.34-1.578-2.285-1.547L326 323l-3.113-2.184c-4.771-2.69-9.675-2.288-15.012-2.128l-2.957.029c-4.528.07-8.439.387-12.918 1.283z"/><path fill="#3AA5E6" d="M323 170h1l.078 2.125c.465 7.782 1.635 13.752 7.422 19.25 4.908 3.19 8.445 3.936 14.258 4.281C348 196 348 196 350 198c-5.503 3.57-10.659 3.518-17 3l-3-1v-2l-1.75-.25c-3.912-1.304-5.73-3.989-8-7.312-1.908-5.246-2.62-11.208-.383-16.481 1.07-1.644 1.07-1.644 3.133-3.957"/><path fill="#93CFEB" d="M286 144h2l-1 10 2.375.75C292 156 292 156 293.152 157.54c5.833 16.934.134 54.435-.152 66.46h138v1H292l-1-65-7-6c-.719-3.993-.114-6.565 2-10"/><path fill="#E0E8EA" d="m148.73 375.861 2.645.014 2.782.006c17.95.1 35.9.661 53.843 1.119-2.677 2.677-4.02 2.267-7.763 2.303l-3.661.05-3.974.026q-2.033.024-4.066.051c-3.572.046-7.145.08-10.717.113-5.712.051-11.423.117-17.134.188q-2.991.033-5.983.055l-3.68.04-3.239.03c-2.425.125-4.467.446-6.783 1.144-.393 5.675-.393 5.675 1.437 10.938 3.626 2.918 7.016 2.955 11.563 3.062v2h-14v-3h-2c-.506-6.986-.06-11.217 4-17 1.81-1.81 4.318-1.133 6.73-1.139"/><path fill="#89D0F7" d="M288 140h132l5 18a464 464 0 0 0 4.2 12.305c.652 1.88 1.233 3.786 1.8 5.695l-1 2c-3.197-2.325-3.644-5.063-4.46-8.793-.863-3.53-2.212-6.828-3.54-10.207h-1v-9h-2v-4l-2-1v-4H288z"/><path fill="#8AC428" d="M152 64h1v5l3.063-.187c4.543.216 6.94 1.108 10.937 3.187l1 2-2.5-1c-4.175-1.366-4.175-1.366-11.5-1v16l-6-1v-3l-2.75-.812c-2.965-1.084-4.867-2.172-7.25-4.188l2.375-1.812c2.77-2.099 2.77-2.099 4.625-5.188h2l1-3 2-1c1.134-2.017 1.134-2.017 2-4"/><path fill="#F6F1EB" d="M448 375h2l-1 3c-6.5.811-12.891 1.198-19.437 1.316l-2.991.064q-4.785.096-9.572.183c-1.084.02-2.169.042-3.286.064A2099 2099 0 0 1 358 380l-1-3 3.41-.031q15.87-.147 31.742-.308 8.16-.084 16.32-.158 7.868-.072 15.737-.156 3.009-.031 6.018-.056 4.199-.037 8.398-.086l2.54-.017c3.722.306 3.722.306 6.835-1.188"/><path fill="#C5E8FC" d="M160.358 395.886h2.73l2.951.016 3.018.005c3.19.005 6.379.018 9.568.03q3.238.008 6.477.014 7.95.017 15.898.049l-1 2h-42c.879 4.393 2.021 8.596 3.312 12.875 1.731 5.816 3.419 11.641 5 17.5l.989 3.648C168 435 168 435 168 438c-3.79.886-7.287 1.117-11.176 1.098l-3.506-.01-3.63-.026-3.69-.013q-4.5-.018-8.998-.049v-1c9.371-.885 18.598-1.117 28-1q-.682-2.845-1.375-5.688l-.773-3.199c-.775-3.061-.775-3.061-1.887-5.699-.982-2.457-1.54-4.755-2.028-7.352l-.496-2.613A395 395 0 0 1 157 404h-2l-1-7c2.352-1.176 3.737-1.12 6.358-1.114"/><path fill="#8BBE2F" d="M166.875 20.125 170 21l-2 1v2l-1.75.188c-3.294 1.189-4.397 2.873-6.25 5.812-.979 3.594-.979 3.594-1 7l2 2c.886 8.591.24 16.873-5 24l-3 1c1.79-5.51 1.79-5.51 2.766-7.793 2.379-5.656 2.909-11.11 3.234-17.207h-8c.607-6.47 4.728-11.782 8.875-16.562C163 20 163 20 166.875 20.125"/><path fill="#7BB1CF" d="M292 289h12v1l-9 1-1 26 5-2c7.88-.786 14.716-.043 22 3l3 1v2l1.625.375c2.839.747 5.597 1.678 8.375 2.625l1 5-1.723-1.172-2.34-1.578-2.285-1.547L326 323l-3.113-2.184c-4.771-2.69-9.675-2.288-15.012-2.128l-2.957.029c-4.528.07-8.439.387-12.918 1.283z"/><path fill="#C8852E" d="m82.807 78.855 3.54-.02 3.81-.003 3.922-.01q4.106-.009 8.21-.007c3.504 0 7.008-.014 10.512-.031 3.347-.014 6.695-.013 10.043-.014l3.81-.022 3.54.01 3.112-.005c2.726.25 4.368.848 6.694 2.247l-2.403.025q-11.211.116-22.423.263-5.765.076-11.528.134-5.564.056-11.127.136-2.121.029-4.244.045c-1.982.017-3.964.047-5.946.078l-3.418.04c-2.863.274-4.433.92-6.911 2.279-2.25-.375-2.25-.375-4-1 5.15-3.29 8.726-4.123 14.807-4.145"/><path fill="#355F2C" d="m77 75 1.69.43c2.821.696 5.365.69 8.272.684h3.64l3.914-.016 4.018-.005q5.277-.006 10.554-.024 5.39-.014 10.78-.02Q130.432 76.033 141 76c-1.129 1.977-1.129 1.977-3 4-2.677.443-2.677.443-5.94.362l-3.7-.061-3.997-.13q-2.044-.043-4.09-.084c-3.586-.074-7.17-.172-10.756-.276-3.66-.101-7.32-.18-10.98-.26A3702 3702 0 0 1 77 79l-1-3z"/><path fill="#EBA061" d="m65 85 2 1c-.972 3.403-1.876 5.84-4.059 8.66-2.485 4.276-2.439 7.32-2.254 12.153l.03 2.35c-.253 3.723-.253 3.723 1.283 6.837.285 2.776.448 5.551.621 8.336.215 2.886.215 2.886 2.379 5.664.195 2.918.195 2.918.125 6.188l-.055 3.292L65 142h-2q-1.091-6.02-2.136-12.048a650 650 0 0 0-.728-4.078C55.206 98.69 55.206 98.69 63 87h2z"/><path fill="#A0BEC9" d="M286 144h2l-1 10 2.375.75c3.108 1.48 3.467 2.086 4.625 5.25.24 2.949.24 2.949.227 6.42v3.943l-.032 4.246-.008 4.355c-.008 3.814-.028 7.628-.05 11.442-.02 3.895-.03 7.79-.04 11.684-.02 7.637-.055 15.273-.097 22.91h-2l.01-2.427q.033-11.343-.038-22.687c-.024-3.888-.035-7.775-.017-11.662.018-3.755.001-7.508-.039-11.263q-.014-2.145.01-4.289c.36-7.84.36-7.84-2.525-14.81-1.856-1.615-1.856-1.615-3.847-2.765C284 154 284 154 283.438 150.875c.52-2.659 1.149-4.578 2.562-6.875"/><path fill="#E8F6FC" d="m350.063 157 1.937 1c-4 1-4 1-5.875 1.25-3.785 1.336-7.32 4.141-9.125 7.75-2.375.125-2.375.125-5 0l-2-2-2 2v-4c6.658-6.356 12.96-8.973 22.063-6"/><path fill="#DDA980" d="M416 320h2v2l2.938.375L424 323l1 2 3.188 1.625c8.203 4.587 12.214 14.08 15.812 22.375v2h-2l-.805-1.645-1.07-2.168-1.055-2.144c-1.136-2.255-1.136-2.255-3.07-5.043v-4l-1.625-.812c-1.8-.901-3.567-1.873-5.312-2.875-3.339-1.431-4.674-1.41-8.063-.313l-2-4 2-1 2 1v-4l-6-1z"/><path fill="#EFBF77" d="M280.133 147.207A69 69 0 0 1 284 149a253 253 0 0 1 2 6l2 3h-6v-2c-4.869.596-9.328 1.57-14 3 1.466-3.348 3.337-5.693 5.875-8.312l2.055-2.176C278 147 278 147 280.133 147.207"/><path fill="#B6C540" d="m250 128 2 1v3h2c2.523 6.472 3.418 12.141 3.691 19.082.303 2.858.672 4.57 2.309 6.918 4.087 1.164 4.087 1.164 8 0l-2 4c-3.788-.526-6.172-1.381-9-4v-2h-2c-2.793-4.324-2.414-9.196-2.566-14.156-.165-3.829-.586-6.506-2.434-9.844z"/><path fill="#3C6644" d="M136 103a295 295 0 0 1 3.938.875l2.214.492C144 105 144 105 145 107c9.816 3.472 21.442 2.22 31.688 2.125q2.814-.016 5.63-.027 6.841-.035 13.682-.098v1c-6.308.81-12.396 1.101-18.75 1-4.923-.077-9.425-.084-14.25 1-8.819.697-16.616.472-23.66-5.379-1.403-1.371-1.403-1.371-3.34-3.621"/><path fill="#F8E8D9" d="M194 233c2.445 1.668 2.445 1.668 4 3-3.779-.728-7.513-1.58-11.25-2.5l-3.203-.781C181 232 181 232 180 231a91 91 0 0 0-5.129-.098l-3.135.01-3.298.025-3.311.014q-4.064.018-8.127.049v2l-3.437.938c-3.35.691-3.35.691-4.563 2.062-2 .04-4 .043-6 0 11.58-13.76 36.839-9.028 51-3"/><path fill="#E9DCD1" d="m145.133 375.886 2.777.016 2.998.01 3.155.025 3.166.014q3.885.018 7.771.049v1h-21c-2.083 4.165-3.184 7.353-3 12 1.186 3.107 1.186 3.107 4 5 3 .69 5.926.928 9 1v2h-14v-3h-2c-.506-6.986-.06-11.217 4-17 1-1 1-1 3.133-1.114"/><path fill="#2A7A2D" d="M157.5 70.625c5.239.038 9.32 2.356 13.5 5.375l1 2-1.723-.621-2.34-.817-2.285-.808c-3.145-.894-6.415-1.292-9.652-1.754l-1 15-7.715.684c-2.247.076-2.247.076-3.285 1.316-2.67.141-5.324.042-8 0 1-2 1-2 2.64-2.621 3.063-.492 6.01-.473 9.11-.442l3.547.028L154 88l-1-3a147 147 0 0 1-.125-6.625l-.008-3.54c.195-4.16.37-3.753 4.633-4.21"/><path fill="#E7A878" d="m346 348 2 1c2 7 2 7 2 27h-59v-1h58c-.66-12-.66-12-3-23z"/><path fill="#CB861F" d="M140 81c5.75 1.875 5.75 1.875 8 3v3l4 1-3.07.297q-2.028.225-4.055.453l-2.016.188c-5.074.596-7.909 2.035-11.859 5.062.7 3.147 1.76 6.026 3 9h-5c-1.262-2.525-1.099-4.312-1.062-7.125l.027-2.758L128 91l2.563-.812c3.576-1.236 6.976-2.665 10.437-4.188z"/><path fill="#539A80" d="M100 6c.688 1.688.688 1.688 1 4-.96 1.69-1.966 3.354-3 5a140 140 0 0 0-2 7 710 710 0 0 1-1.125 3.938L94 29h-2l.108 1.896q.234 4.239.454 8.479l.17 2.984.147 2.852.143 2.634C93 50 93 50 92 52l-3-1c.767-15.973 2.157-31.22 11-45"/><path fill="#ECCDB9" d="M160 416c2 2 2 2 3 5l2 1c.852 2.836.852 2.836 1.625 6.375.39 1.744.39 1.744.79 3.523C168 435 168 435 168 438c-3.79.886-7.287 1.117-11.176 1.098l-3.506-.01-3.63-.026-3.69-.013q-4.5-.018-8.998-.049v-1c9.371-.885 18.598-1.117 28-1q-.682-2.845-1.375-5.687l-.773-3.2c-.771-3.077-.771-3.077-1.954-5.758C160 420 160 420 160 416"/><path fill="#81C3E8" d="M417 141h2c3.156 7.55 5.815 15.21 8.313 23l1.126 3.426 1.05 3.262.954 2.949C431 176 431 176 430 178c-3.197-2.325-3.644-5.063-4.46-8.793-.863-3.53-2.212-6.828-3.54-10.207h-1v-9h-2v-4l-2-1z"/><path fill="#E0A879" d="M320 320c7.776 1.794 13.57 7.423 19 13l-1 2-2-2c-2.069-.643-2.069-.643-4-1l-1-4h-2l-2 4c-1.937-.687-1.937-.687-4-2-.936-2.88-1.372-4.255 0-7h-3z"/><path fill="#4C8F71" d="M121 18c3.717 6.373 4.338 13.606 4.688 20.813l.142 2.271c.18 3.292.222 5.76-.83 8.916l5-2v-2l7-3v3l-1.812.75c-2.314 1.106-2.314 1.106-3.563 3.313-2.249 2.68-4.25 2.496-7.625 2.937l-.06-1.956c-.095-2.932-.205-5.863-.315-8.794-.03-1.016-.062-2.032-.094-3.078l-.117-2.969-.095-2.73c-.333-2.578-1.093-4.207-2.319-6.473-.195-2.36-.195-2.36-.125-4.75l.055-2.422z"/><path fill="#F1BF95" d="m214 248 3 1v2l3 1c1.281 2.04 1.281 2.04 2.5 4.625l1.219 2.54L225 262l1.555 3.231c1.568 3.683 1.832 6.888 1.843 10.91l.012 3.992-.019 2.048c-.016 2.078 0 4.155.02 6.233l-.013 3.977-.01 3.626C228 299 228 299 226.475 300.913L225 302l.477-2.309c2.38-16.782 1.367-31.776-8.364-46.007-1.208-1.828-2.167-3.71-3.113-5.684"/><path fill="#FEF1E1" d="M224 268c2 1 2 1 2.608 2.757 2.52 14.422.93 29.167-5.608 42.243h-2l-1 2v-3h2v-6l2-1c3.209-9.097 3.641-18.466 3-28l-1-2c-.04-2.333-.043-4.667 0-7"/><path fill="#5CB5E7" d="m342.875 154.125 2.395.11c4.879.308 8.501 1.11 12.73 3.765 1.938 2.5 1.938 2.5 3 5l-1 3-1.437-2.25c-4.336-4.653-9.709-6.912-16.063-7.312-5.24.212-9.216 2.726-13.5 5.562.309-2.855.657-4.586 2.508-6.82 3.8-1.8 7.241-1.362 11.367-1.055"/><path fill="#C88139" d="M227 103c5.856.976 8.463 2.284 12 7l1.875.813c4.004 2.237 6.427 6.135 7.887 10.425.477 1.906.866 3.833 1.238 5.762-3.534-2.356-4.19-4.228-6-8l-1.687-2.25C241 115 241 115 241 113l-1.687-.75C237 111 237 111 234.813 108.813c-4.05-2.61-7.245-1.729-11.813-.813z"/><path fill="#7BC639" d="M210 69c2.491 3.737 2.207 5.745 2.125 10.188l-.055 3.855L212 86l6-1 1 3h-9V71c-7.216.611-7.216.611-14 3 1-3 1-3 3.063-4.187 3.902-1.08 6.885-1.145 10.937-.813"/><path fill="#75B739" d="M156 36.75c3 .25 3 .25 5 2.25.886 8.591.24 16.873-5 24l-3 1c1.79-5.51 1.79-5.51 2.766-7.793 2.379-5.656 2.909-11.11 3.234-17.207h-8c2-2 2-2 5-2.25"/><path fill="#84CB3A" d="m193 76-1.172 1.25c-3.885 4.309-6.42 8.473-8.828 13.75h-2l-1.023-1.863-1.352-2.45-1.336-2.425C176.265 82.465 175.147 80.72 174 79l8 1v5l1-2h2l.375-2.937L186 77c2.463-1.231 4.28-1.072 7-1"/><path fill="#1C8138" d="M210 71v17h11v1h-12l-.586-7.715L208 79l-2-1 1-5c-4.578.432-6.849.699-10 4-2.082-.414-2.082-.414-4-1 5.835-4.452 9.67-5.573 17-5"/><path fill="#80BBE2" d="M422 289h10v40l-8-4c2-1 2-1 6 0v-35h-8z"/><path fill="#EB554D" d="m214 145 4 1-2.18 1.578c-3.76 3.228-6.383 6.981-9.246 10.996-1.125 1.527-2.344 2.983-3.574 4.426h-3c-2.043-2.187-2.043-2.187-4.187-5l-2.168-2.812L192 153l3-1 .988 1.496 1.325 1.941 1.3 1.934c1.39 1.918 1.39 1.918 4.387 2.629l.188-1.687c1.154-3.286 3.306-4.92 5.812-7.313 1.714-1.965 3.354-3.977 5-6"/><path fill="#3D6946" d="m225 103 2 1c-3.593 3.85-5.887 5.919-11.25 6.125L213 110v2c-2.083.054-4.166.093-6.25.125l-3.516.07c-3.062-.185-4.676-.587-7.234-2.195l2.414.105c6.16.158 10.14.007 15.586-3.105 3.375-.187 3.375-.187 6 0v-2c2.375-1.062 2.375-1.062 5-2"/><path fill="#72B1D7" d="m348 349 1 2h2q.506 4.593 1 9.188c.095.864.19 1.728.29 2.619.437 4.08.846 8.08.71 12.193h2l-.07-2.555-.055-3.32-.07-3.305C355 363 355 363 357 361l-1 16-5-1-.168-1.725q-.383-3.92-.77-7.837l-.263-2.713c-.488-4.93-1.053-9.827-1.799-14.725"/><path fill="#B4D674" d="M284 69c2.552 1.276 2.67 2.106 3.625 4.75 2.557 8.127 2.487 17.298-.625 25.25l-2 3 .184-1.879c.76-8.032 1.305-16.07 1.816-24.121h-2z"/><path fill="#FC6F1B" d="m116 118 2 1-1.812 3.563c-3.989 8.005-6.161 14.742-6.75 23.75l-.254 3.8L109 153h-1c-.846-13.11-1.104-23.04 7-34z"/><path fill="#78BA3A" d="M152 64h1v5l3.063-.187c4.543.216 6.94 1.108 10.937 3.187l1 2-2.5-1c-4.175-1.366-4.175-1.366-11.5-1v16h-2l-.184-3.867-.254-5.008-.119-2.55-.127-2.442-.11-2.254C151.1 69.911 151.1 69.911 150 68c.938-2.125.938-2.125 2-4"/><path fill="#D8F2FD" d="M326 166c1.993 3.269 2.1 5.193 1.5 8.938-.51 4.038-.396 6.376 1.5 10.062.369 1.66.713 3.325 1 5-3.887-3.499-5.758-6.491-6.266-11.754l.016-2.809-.016-2.816c.272-2.676.905-4.325 2.266-6.621"/><path fill="#87A5B6" d="m378 324 2 1-1.875.25c-2.246.529-2.246.529-3.062 2.438L374 330a564 564 0 0 1-3.691 4.34c-2.128 2.7-3.678 5.64-5.309 8.66h-2l-2 7c-.98-3.048-1.217-5.004 0-8l4-4 .813-2.375c1.536-3.397 3.738-5.015 6.628-7.293 1.69-1.268 1.69-1.268 2.559-3.332z"/><path fill="#7AB8C4" d="M286 144h2l-1 10 2.375.75c3.083 1.468 3.448 2.133 4.625 5.25.227 2.474.227 2.474.195 5.203l-.02 2.969-.05 3.078-.027 3.125A1095 1095 0 0 1 294 182h-1l.035-1.817c.646-11.476.646-11.476-2.883-21.925-2.16-1.71-2.16-1.71-4.398-3.055C284 154 284 154 283.375 150.813c.576-2.59 1.239-4.56 2.625-6.813"/><path fill="#B4D874" d="M258 39c2.59 2.59 2.374 4.027 2.625 7.625l.227 3.04L261 52l2.45.918C274.062 57.079 274.062 57.079 278 62l-7-2v-2l-2.336-.332-3.039-.48-3.023-.458C260 56 260 56 258 53c-.195-3.355-.195-3.355-.125-7.187l.055-3.856z"/><path fill="#A7C66B" d="M198 18v1h-6v-2c-3.105.11-6.209.24-9.312.375l-2.67.094-2.569.117-2.364.095c-2.387.215-2.387.215-5.085 2.319-2.187-.375-2.187-.375-4-1 9.607-6.313 21.717-5.183 32-1"/><path fill="#EB8D42" d="m60 115 2 1c.344 2.398.344 2.398.5 5.375.205 3.877.295 5.317 2.5 8.625.195 2.918.195 2.918.125 6.188l-.055 3.292L65 142h-2q-.76-4.498-1.5-9l-.434-2.543c-.85-5.229-1.213-10.16-1.066-15.457"/><path fill="#B0D569" d="m227.188 15.938 3.855.027L234 16v1l-14 1-1 3c-1.996.66-1.996.66-4.437 1.063-3.705.569-3.705.569-6.563 2.937l-1-3q2.404-1.222 4.813-2.437l2.707-1.372c4.43-2.128 7.783-2.298 12.667-2.253"/><path fill="#CCE6F0" d="M165 426c3.45 3.45 3.88 5.465 5.063 10.125.587 2.307 1.22 4.605 1.937 6.875l2 1v3c-1.812-.187-1.812-.187-4-1-3-4.179-3-4.179-3-7l-4-1h5z"/><path fill="#C97D38" d="m250 128 2 1v3h2c1.148 2.297 1.116 3.583 1.098 6.133l-.01 2.441-.025 2.551-.014 2.574q-.02 3.15-.049 6.301h-2l-.148-3.36-.227-4.39c-.03-.73-.062-1.46-.094-2.21-.21-3.869-.661-6.666-2.531-10.04z"/><path fill="#F1BA8F" d="m153.813 374.688 3.255.068q3.967.088 7.932.244v1l-1.956-.02a473 473 0 0 0-8.794.082l-3.078-.033c-5.329-.055-5.329-.055-9.741 2.47-2.13 3.615-3.027 7.36-3.431 11.501h-1a130 130 0 0 1-.312-4.687l-.176-2.637c.488-2.676.488-2.676 2.27-5.488 4.857-3.302 9.305-2.728 15.03-2.5"/><path fill="#398769" d="M107.938-.687C112.338.3 113.429 2.37 116 6c-3 1-3 1-4.812.125L109 5a112 112 0 0 0-6-1v2l-2-1c2.087-3.211 3.133-4.797 6.938-5.687"/><path fill="#CDDBE0" d="M154 397h2c2.593 4.789 4.243 9.55 5.75 14.75l.707 2.324c1.667 5.679 1.667 5.679.543 7.926a803 803 0 0 1-2.437-5.625l-1.372-3.164c-1.149-3.098-1.764-5.943-2.191-9.211h-2z"/><path fill="#C8F0FD" d="m342.75 155.875 2.422.055L347 156v1l-1.793.262c-5.64 1.003-8.34 2.302-12.207 6.738l-3 1-2 2v-4c4.526-4.32 8.286-7.315 14.75-7.125"/><path fill="#EA534D" d="M156 145c2 0 2 0 4.5 2.188 2.34 2.631 3.458 4.497 4.5 7.812h2l1 4 5 1-3 3a3622 3622 0 0 1-5.312-5.75l-1.514-1.633C156 147.826 156 147.826 156 145"/><path fill="#81A9BF" d="m393.3 316.805 2.96.02 3.053.05 3.11.027q3.79.036 7.577.098v1l-3.402.184c-7.561.419-15.082.86-22.598 1.816v3l-4 1c0-2 0-2 1.188-3.5 3.7-3.063 7.404-3.75 12.113-3.695"/><path fill="#BD2B30" d="m134 102 1.723 1.207c4.649 3.19 9.033 5.737 14.277 7.793 1.34.653 2.677 1.312 4 2h-7v-2l-2.312.125C142 111 142 111 139 109v-2h-3l-1 3-2-2h2z"/><path fill="#D22F2A" d="m127 148 5 2v3h2v2h2l1 4h3l1-3v7c-4.198-1.56-6.527-4.68-9.25-8.062l-1.39-1.682C127 149.152 127 149.152 127 148"/><path fill="#AFD16E" d="M234 17c6.485.276 11.07 2.786 16 7v2h2v2h-3v-2l-5-1-1-4h-3v-2l-6-1z"/><path fill="#E3B18F" d="M433 332c5.492 4.523 8.223 10.538 11 17v2h-2l-.805-1.645-1.07-2.168-1.055-2.144c-1.136-2.255-1.136-2.255-3.07-5.043v-4l-3-1z"/><path fill="#FD9F56" d="M70 154c2.964 2.808 5.445 5.183 7 9l2.25-2.25L86 154c-1.368 3.99-3.002 7.002-6 10-2.437.813-2.437.813-5 0-2.377-2.877-5-6.167-5-10"/><path fill="#C68E66" d="m380 324 2 1a337 337 0 0 1-2.75 3.875l-1.547 2.18c-1.812 2.07-3.142 2.987-5.703 3.945h-3a462 462 0 0 1 3.25-4.375l1.828-2.46c1.908-2.15 3.218-3.238 5.922-4.165"/><path fill="#EFBE97" d="M113 276h1l.044 1.709c.075 2.598.172 5.194.269 7.791l.068 2.688c.178 4.408.551 8.111 2.224 12.218 1.402 3.613 1.522 4.186.395 7.594-2.435-5.506-4.135-9.889-4.098-15.984l.01-2.832.025-2.934.014-2.98q.018-3.636.049-7.27"/><path fill="#C9F0FD" d="M360 166c3.763 4.163 3.483 7.738 3.371 13.137-.466 3.6-1.649 5.481-4.371 7.863l.496-2.508c.55-3.814.615-7.526.567-11.367l-.014-2.086q-.02-2.52-.049-5.039"/><path fill="#1A6B2C" d="M155 71c6.451-.686 10.734 1.27 16 5l1 2-1.687-.621C165.163 75.56 160.437 74.494 155 74z"/><path fill="#5A987F" d="M58.89 37.867c4.164.014 8.05.085 12.11 1.133-4.656 3.104-8.53 1.644-14 1l1 13c-1.912-3.823-2.253-5.134-2.187-9.187l.019-2.668c.213-2.724.33-3.086 3.059-3.278"/><path fill="#FEEAD1" d="M224 268c2 1 2 1 2.619 2.724.436 2.606.493 5.055.479 7.698l-.01 3.105-.025 3.223-.014 3.27q-.018 3.99-.049 7.98h-1l-.076-1.712q-.176-3.832-.362-7.663l-.119-2.695-.127-2.578-.11-2.38c-.097-2.047-.097-2.047-1.206-3.972-.04-2.333-.043-4.667 0-7"/><path fill="#F8E6D4" d="m135 240 1 2-2 1-1.437 2.438C131 248 131 248 128 250c-.724 2.06-.724 2.06-1 4l-4 1c1.367-3.987 3.152-6.885 6-10h2l.875-1.937C133 241 133 241 135 240"/><path fill="#F1BF97" d="M155 230c-2.192 2.192-3.334 2.532-6.25 3.375-4.191 1.316-7.184 3.103-10.75 5.625h-2v-3c12.237-6.398 12.237-6.398 19-6"/><path fill="#67B9E5" d="M347 155c4.462-.394 7.224.62 11 3 1.938 2.5 1.938 2.5 3 5l-1 3-1.437-2.25c-3.366-3.612-7.013-5.01-11.563-6.75z"/><path fill="#AFD960" d="M233 96h2v10l-5-2c0-4.225.256-5.045 3-8"/><path fill="#1F7C3D" d="M223 89c3.912 1.156 6.875 2.355 10 5-.53 3.821-1.497 6.062-4 9l-2-1v-5h3l1-3c-2.652-1.075-5.284-2.095-8-3z"/><path fill="#F7E8DA" d="M122 255c1 2 1 2 .11 4.898l-1.36 3.477-1.328 3.46c-1.24 2.762-2.49 4.858-4.422 7.165.415-6.231 2.464-14.464 7-19"/><path fill="#9BB825" d="m145 78 1 4 4 1 1 4h-3v-3l-2.75-.812c-2.965-1.084-4.867-2.172-7.25-4.188z"/><path fill="#438A6D" d="M91 33h1q.29 4.187.563 8.375l.17 2.406c.38 5.992.38 5.992-.733 8.219l-3-1q.212-3.375.438-6.75c.08-1.253.162-2.506.246-3.797.241-2.636.559-4.933 1.316-7.453"/><path fill="#FEA883" d="M151 150c0 3.564-.671 4.14-2.875 6.813-2.565 3.272-4.104 6.101-5.125 10.187-1.187-1.687-1.187-1.687-2-4 2.09-5.014 6.386-9.01 10-13"/><path fill="#B3937A" d="M363 343c1.072 3.652.764 6.264 0 10h-2v5l-3 1c.508-5.966 2.386-10.638 5-16"/><path fill="#F27B1A" d="m83 153 3 1a622 622 0 0 1-3.375 4.5l-1.898 2.531L79 163h-2c-1.625-2.5-1.625-2.5-3-5l6 1v-3h2z"/><path fill="#0F6141" d="m57 40 4 1-2 6 2 2c.125 3.625.125 3.625 0 7l-1-3h-2c-1.102-4.41-1.077-8.484-1-13"/><path fill="#EE964A" d="m65 85 2 1c-1.317 4.609-3.152 8.141-6 12h-1c-.323-4.626.155-7.28 3-11h2z"/><path fill="#3F7F66" d="m136 43 1 3-1.812.75c-2.32 1.13-2.32 1.13-3.75 3.375-.475.619-.95 1.237-1.438 1.875h-3l1-4h2v-2z"/><path fill="#EFBB8F" d="M160 227h23l1 3-2.414-.465c-4.32-.645-8.601-.885-12.961-1.097l-2.52-.131q-3.053-.158-6.105-.307z"/><path fill="#EDC8A8" d="m138 390 1 2a90 90 0 0 0 4 2l1 1c1.682.233 3.371.413 5.063.563l2.785.253L154 396v1h-14v-3h-2z"/><path fill="#E6BE97" d="m62 145 2 1v2l-2.062 1.125c-4.102 2.618-6.863 6.144-9.938 9.875l-2-1z"/><path fill="#9CD039" d="m210 22 3 1-4 2zm-5 2 4 1c-1.098 2.993-1.677 3.846-4.625 5.25L202 31l1-4h2z"/><path fill="#D5A27B" d="m204 319-8 3v2l-8 1c4.272-5.162 9.496-7.626 16-6"/><path fill="#DAF2C8" d="m284 102 1 2 2 1a141 141 0 0 1-5 5h-2v2h-2v-3h2l.875-1.812C282 105 282 105 284 102"/><path fill="#E28C0F" d="M140 81c5.75 1.875 5.75 1.875 8 3v3h-7z"/><path fill="#6EB234" d="M148 69c.813 1.688.813 1.688 1 4-2.401 3.037-4.06 4.729-7.812 5.813L139 79a418 418 0 0 1 2.875-3.5l1.617-1.969L145 72h2z"/><path fill="#DC2614" d="m133 103 2 1v4l-2.187-.312c-3.933.436-5.276 2.413-7.813 5.312l-2-1z"/><path fill="#1E8137" d="M178 85c3 3.75 3 3.75 3 6h2l1-5h1v7l-6-1z"/><path fill="#306024" d="m147.25 87.938 3.266.027L153 88v1l-6.152.684c-1.86.135-1.86.135-2.848 1.316-2.67.141-5.324.042-8 0 1-2 1-2 2.672-2.621 2.89-.47 5.65-.473 8.578-.442"/><path fill="#097A4F" d="M122 41h2v13h-2l.063-2.437c.233-2.497.233-2.497-1.063-3.563-.233-4.535-.233-4.535 1-7"/><path fill="#DBCFC6" d="M160 416c2 2 2 2 3 5l2 1c.594 2.649.742 5.292 1 8-3.123-2.082-3.504-2.557-4.687-5.875l-.762-2.055C160 420 160 420 160 416"/><path fill="#ECF5F8" d="M166 336h4v2h2l-1 3h-9l2-1.375 2-1.625z"/><path fill="#F5C8A1" d="M227 280h1c.087 3.104.14 6.208.188 9.313l.076 2.67.029 2.568.048 2.364c-.423 2.584-1.356 3.448-3.341 5.085l.465-2.477c.603-3.97.877-7.892 1.097-11.898l.131-2.23q.157-2.697.307-5.395"/><path fill="#93C8E7" d="M426 164c2.571 2.571 2.801 4.605 3.625 8.125.26 1.096.52 2.191.79 3.32L431 178l-3-1c-1.405-4.438-2.292-8.321-2-13"/><path fill="#8FC135" d="m173 17 3 1-5 6-6-3v-1l2.875-.937c2.986-.937 2.986-.937 5.125-2.063"/><path fill="#EEBC96" d="m73 425 1.813.938C77.09 427.102 77.09 427.102 80 428a90 90 0 0 1 2 4l2 1-1 3q-2.504-2.466-5-4.937l-2.812-2.778C73 426 73 426 73 425"/><path fill="#EA9B65" d="m406 325 2 1a832 832 0 0 1-3.312 3.875l-1.864 2.18C401 334 401 334 398 336v-3h2v-2h2l.875-1.875C404 327 404 327 406 325"/><path fill="#F0BE96" d="m118 259 2 1-5 14h-1l1-11h2z"/><path fill="#B2E75A" d="M226.938 54.875C230 55 230 55 232 56v2l-3.25-.125c-3.407.114-4.957.338-7.75 2.125 2.407-4.975 2.407-4.975 5.938-5.125"/><path fill="#E7BC9A" d="M54 402c6.792 5.283 6.792 5.283 9 8-.25 2.25-.25 2.25-1 4l-1-3h-2c-1.29-1.46-1.29-1.46-2.625-3.375l-1.352-1.898C54 404 54 404 54 402"/><path fill="#73B1D3" d="M342 337h4l-1 6h2l1 6c-2.976-2.55-4.44-5.434-6-9z"/><path fill="#BFAC9B" d="M330 326c3.817 1.555 6.192 4.036 9 7l-1 2-2-2-2-.25-2-.75c-1.25-3.062-1.25-3.062-2-6"/><path fill="#FB9D7B" d="m123 146 3 1c-1.882 3.482-3.501 6.032-7 8l-3-1z"/><path fill="#76B9E1" d="M417 141h2c3.077 5.415 3.077 5.415 2.688 8.375L421 151l-2-1v-4l-2-1z"/><path fill="#C95B50" d="M227 103c2.375.313 2.375.313 5 1l2 3-11 1z"/><path fill="#C2AD97" d="M346 348c2 1 2 1 3.125 4.313C350 356 350 356 350 360h-2c-1.138-4.266-2-7.565-2-12"/><path fill="#4D5B3C" d="m136 103 8 2 1 4 3 1c-4.932-.448-8.32-2.86-12-6z"/><path fill="#89CC46" d="M229 91h4l5 5-3 4v-4h-2a105 105 0 0 1-4-5"/><path fill="#458567" d="M69 72h4c4 4 4 4 4 7-3.795-1.491-5.61-3.757-8-7"/><path fill="#B4D371" d="M253 28c2.342 2.129 3.836 4.044 5 7v4l-3-1v-5h-2z"/><path fill="#B0CF7E" d="M165 20v2l-3 2-1 3c-3.062 1.688-3.062 1.688-6 3 1.5-3.9 5.461-10 10-10"/><path fill="#F7E8DB" d="M136 330c4.752.432 6.92 1.328 10 5l-2 1c-1.945-.96-1.945-.96-4.125-2.375l-2.195-1.398L136 331z"/><path fill="#F2862D" d="M103 155h3v4l6 1v2l-4 1-1-3h-2z"/><path fill="#89C425" d="M153 64h3v2l3 1v2h-6z"/><path fill="#31A4EB" d="m320 178 3 2c.188 2.625.188 2.625 0 5l-3 1c-1.125-5.75-1.125-5.75 0-8"/><path fill="#FD9E7C" d="m213 149 1 3c-1.937 3.188-1.937 3.188-4 6l-4-1z"/><path fill="#328F36" d="M203.266 71.348 205 72l-2.875 1.375c-3.128 1.427-3.128 1.427-5.125 3.625-2.125-.375-2.125-.375-4-1 1.24-.87 2.492-1.72 3.75-2.562l2.11-1.442C201 71 201 71 203.265 71.348"/><path fill="#ECC19E" d="m139 378 3 1-1.437 2.125c-1.65 3.036-2.167 5.467-2.563 8.875h-1a365 365 0 0 1-.125-4.875l-.07-2.742C137 380 137 380 139 378"/><path fill="#C7AD92" d="M339 335c3.357 2.238 3.58 2.933 4.688 6.625l.761 2.477L345 346c-2.528-1.264-2.764-2.528-4-5l-2-1z"/><path fill="#DEF9D3" d="M280 112c1.813.125 1.813.125 4 1 3.147 4.883 3.147 4.883 2.688 8.375L286 123c-4.286-7.429-4.286-7.429-6-11"/><path fill="#1C5E33" d="M77 75c1.863.253 3.717.577 5.563.938l3.066.59L88 77v1l-11 1-1-3z"/><path fill="#E4EFF7" d="M443 437h2c-.48 4.314-1.746 6.166-5 9 .7-3.147 1.76-6.026 3-9"/><path fill="#5DB2E0" d="m353 195-2 2c-3.04-.023-3.04-.023-6.625-.375l-3.602-.336L338 196v-1q2.905-.29 5.813-.562l3.269-.317C350 194 350 194 353 195"/><path fill="#99D870" d="M226 86c1.625 1.375 1.625 1.375 3 3v2l-9-3c4-2 4-2 6-2"/><path fill="#B0D568" d="m278 62 6 5-1 2-5-1z"/><path fill="#9ABD5E" d="M154 30h2l1 3-3 1c-.733 2.015-.733 2.015-1 4h-2c1.875-5.75 1.875-5.75 3-8"/><path fill="#9DCC3D" d="m229.25 16.938 2.703.027L234 17v1l-3.312.375c-3.762.38-3.762.38-6.688 2.625v-2l-4-1c3.155-.936 5.966-1.106 9.25-1.062"/><path fill="#F6F2EE" d="M448 375h2l-1 3-8 1-1-2 3.438-.437c3.37-.175 3.37-.175 4.562-1.563"/><path fill="#EF544A" d="M234 156h3c-1.477 4.677-1.477 4.677-4.125 6.313L231 163v-3h3z"/><path fill="#D02B25" d="m113 153 4 1-6 7-1-2 1-2h2z"/><path fill="#EE4E4C" d="m245 144 2 1c-1.491 3.795-3.757 5.61-7 8 1.498-3.112 3.2-6.053 5-9"/><path fill="#4C816A" d="M147 39v2c-2.75 1.625-2.75 1.625-6 3-2.375-.812-2.375-.812-4-2q1.935-.755 3.875-1.5l2.18-.844C145 39 145 39 147 39"/><path fill="#F1BE9A" d="m65 416 5 1 1 6-2-1v-2h-2v-2h-2z"/><path fill="#E9F5FA" d="m451 413 3 1-3 8c-.959-3.836-.919-5.324 0-9"/><path fill="#F7E3D1" d="m172 338 3 1-2 3c-2.383.293-2.383.293-5.125.188l-2.758-.083L163 342v-1l6.152-.586L171 340z"/><path fill="#C2AF9D" d="M426 326a56.5 56.5 0 0 1 7 4l-1 2c-2.437-.75-2.437-.75-5-2-.812-2.125-.812-2.125-1-4"/><path fill="#F1C6A3" d="M124 318c4.875 4.75 4.875 4.75 6 7l-5-1z"/><path fill="#EE7D20" d="m65 144 3 1 1 7-2-1v-2h-2z"/><path fill="#59BBDF" d="M288 141h5l-2 1a101 101 0 0 0-2 6h-2z"/><path fill="#D9854D" d="M365 344h1c.188 2.875.188 2.875 0 6l-3 2c.875-6.875.875-6.875 2-8"/><path fill="#7EB0D6" d="M424 324h7l1 5-8-4z"/><path fill="#F1C59F" d="M114 298c2 1 2 1 3.188 3.313.848 2.807.811 3.989-.188 6.687-3-6.625-3-6.625-3-10"/><path fill="#C6F0FE" d="M325 182h2c1.688 1.75 1.688 1.75 3 4-.312 2.25-.312 2.25-1 4-4-5.75-4-5.75-4-8"/><path fill="#DE3531" d="M140 156h1v7c-3.875-1.75-3.875-1.75-5-4h4z"/><path fill="#F1BD95" d="M280 152h4c2.25 3 2.25 3 4 6l-8-4z"/><path fill="#5CB7E9" d="m286 148 1 4 4 1-1 3-4-2z"/><path fill="#FC9578" d="m245 148 1 3-5 5-2-1z"/><path fill="#A7AF25" d="m145 82 5 1 1 4h-3v-3l-3-1z"/><path fill="#4D886C" d="M83 45c4.875 2.75 4.875 2.75 6 5l-6-1z"/></svg>